<svg xmlns="http://www.w3.org/2000/svg" viewBox="0 0 512 512"><path d="M359.225 123.428c-19.522 0-35.404 15.883-35.404 35.404s15.882 35.404 35.404 35.404c19.522 0 35.404-15.883 35.404-35.404s-15.882-35.404-35.404-35.404zm0 54.468c-10.511 0-19.064-8.553-19.064-19.064s8.551-19.064 19.064-19.064c10.511 0 19.064 8.553 19.064 19.064s-8.553 19.064-19.064 19.064zm-158.518-54.468c-19.521 0-35.404 15.883-35.404 35.404s15.883 35.404 35.404 35.404 35.404-15.883 35.404-35.404-15.882-35.404-35.404-35.404zm0 54.468c-10.511 0-19.064-8.553-19.064-19.064s8.553-19.064 19.064-19.064 19.064 8.553 19.064 19.064-8.552 19.064-19.064 19.064z"/><path d="M419.404 0c-21.47 0-40.456 13.155-48.182 32.681H188.71C180.983 13.155 161.998 0 140.528 0a8.17 8.17 0 0 0-8.17 8.17v181.366a8.17 8.17 0 0 0 16.34 0V81.957a143.415 143.415 0 0 1 123.76 86.69 8.173 8.173 0 0 0 7.508 4.947 8.173 8.173 0 0 0 7.508-4.947 143.415 143.415 0 0 1 123.76-86.69v142.996c0 146.536-117.033 266.25-262.536 270.584v-25.28c70.805-23.559 122.008-90.433 122.008-169.05 0-51.358-41.782-93.14-93.14-93.14s-93.14 41.782-93.14 93.14v169.94a8.17 8.17 0 0 0 8.17 8.17c13.664 0 26.973-1.551 39.762-4.478v28.99a8.17 8.17 0 0 0 8.17 8.17c158.278 0 287.047-128.769 287.047-287.047V8.17A8.171 8.171 0 0 0 419.404 0zm-8.17 65.592c-55.054 2.795-104.502 33.659-131.268 81.389-26.766-47.73-76.215-78.594-131.268-81.389V17.287c12.605 2.969 22.848 12.674 26.185 25.604a8.17 8.17 0 0 0 7.911 6.129h194.344a8.17 8.17 0 0 0 7.911-6.129c3.337-12.931 13.58-22.636 26.185-25.604v48.305zM140.528 454.947c-2.295 0-4.366.95-5.851 2.474a160.964 160.964 0 0 1-33.911 5.355V301.208c0-42.348 34.452-76.8 76.8-76.8s76.8 34.452 76.8 76.8c0 71.857-47.093 132.914-112.035 153.944a8.235 8.235 0 0 0-1.803-.205z"/><path d="M157.957 293.038a8.17 8.17 0 0 0-8.17 8.17c0 4.506-3.665 8.17-8.17 8.17-4.506 0-8.17-3.665-8.17-8.17a8.17 8.17 0 0 0-16.34 0c0 13.516 10.995 24.511 24.511 24.511s24.511-10.995 24.511-24.511a8.172 8.172 0 0 0-8.172-8.17zm16.341 49.022a8.17 8.17 0 0 0-8.17 8.17c0 4.506-3.665 8.17-8.17 8.17s-8.17-3.665-8.17-8.17a8.17 8.17 0 0 0-16.34 0c0 13.516 10.995 24.511 24.511 24.511s24.511-10.995 24.511-24.511a8.173 8.173 0 0 0-8.172-8.17z"/></svg>