<svg version="1.1"
      xmlns="http://www.w3.org/2000/svg"
      xmlns:xlink="http://www.w3.org/1999/xlink"  id="snapshot-51158" width="250" height="250" viewBox="0 0 250 250"><desc>This image was made on Patterninja.com</desc><defs>
<!-- image 76092 -->
<g id="transformed-76092" data-image="76092" transform="translate(-68.96271015556161, 145.76240994676408) rotate(45, 68.96271015556161, 103.23759005323593)"><g><svg version="1.1" width="137.92542031112322px" height="206.47518010647187px" viewBox="0 0 137.92542031112322 206.47518010647187"><g id="original-76092"><svg xmlns="http://www.w3.org/2000/svg" id="Warstwa_1" viewBox="0 0 343.1 512" xmlns:xlink="http://www.w3.org/1999/xlink" version="1.1" preserveAspectRatio="xMidYMid meet">
  <path d="M275 123.4c-19.5 0-35.4 15.9-35.4 35.4s15.9 35.4 35.4 35.4 35.4-15.9 35.4-35.4-15.9-35.4-35.4-35.4zm0 54.5c-10.5 0-19.1-8.6-19.1-19.1s8.6-19.1 19.1-19.1c10.5 0 19.1 8.6 19.1 19.1s-8.6 19.1-19.1 19.1zm-158.6-54.5c-19.5 0-35.4 15.9-35.4 35.4s15.9 35.4 35.4 35.4 35.4-15.9 35.4-35.4-15.8-35.4-35.4-35.4zm0 54.5c-10.5 0-19.1-8.6-19.1-19.1s8.6-19.1 19.1-19.1 19.1 8.6 19.1 19.1-8.6 19.1-19.1 19.1z" fill="rgba(0, 0, 0, 1)" stroke="none"/>
  <path d="M335-.2c-21.5 0-40.5 13.2-48.2 32.7H104.3C96.6 13 77.6-.2 56.1-.2c-4.5 0-8.2 3.7-8.2 8.2v224.2c0 4.5 3.7-6 8.2-6 4.5 0 8.2-.4 8.2-4.9V81.8c54.4 3.1 102.3 36.6 123.8 86.7 1.3 3 4.2 4.9 7.5 4.9s6.2-1.9 7.5-4.9c21.5-50 69.4-83.6 123.8-86.7v143c0 146.5-117 266.2-262.5 270.6v-25.3c70.8-23.6 122-90.4 122-169 0-51.4-41.8-93.1-93.1-93.1S0 249.6 0 301v169.9c0 4.5 3.7 8.2 8.2 8.2 13.7 0 27-1.6 39.8-4.5v29c0 4.5 3.7 8.2 8.2 8.2 158.3 0 287-128.8 287-287V8c-.1-4.5-3.7-8.2-8.2-8.2zm-8.2 65.6c-55.1 2.8-104.5 33.7-131.3 81.4C168.8 99 119.3 68.2 64.3 65.4V17.1c12.6 3 22.8 12.7 26.2 25.6.9 3.6 4.2 6.1 7.9 6.1h194.3c3.7 0 7-2.5 7.9-6.1 3.3-12.9 13.6-22.6 26.2-25.6v48.3zM55.5 455.7c-1.7.5-3.5 1-5.2 1.5-11.1 3-22.4 4.8-33.9 5.4V301c0-42.3 34.5-76.8 76.8-76.8S170 258.7 170 301c0 71.9-47.1 132.9-112 153.9-.1 0-.9.3-2.5.8z" fill="rgba(0, 0, 0, 1)" stroke="none"/>
  <path d="M81.9 300.5c0-4.5-3.7-8.2-8.2-8.2-4.5 0-8.2 3.7-8.2 8.2 0 4.5-3.7 8.2-8.2 8.2-4.5 0-8.2-3.7-8.2-8.2 0-4.5-3.7-8.2-8.2-8.2-4.5 0-8.2 3.7-8.2 8.2 0 13.5 11 24.5 24.5 24.5 13.7 0 24.7-11 24.7-24.5z" fill="rgba(0, 0, 0, 1)" stroke="none"/>
  <path d="M90 341.4c-4.5 0-8.2 3.7-8.2 8.2 0 4.5-3.7 8.2-8.2 8.2s-8.2-3.7-8.2-8.2c0-4.5-3.7-8.2-8.2-8.2-4.5 0-8.2 3.7-8.2 8.2 0 13.5 11 24.5 24.5 24.5s24.5-11 24.5-24.5c.2-4.6-3.5-8.2-8-8.2z" fill="rgba(0, 0, 0, 1)" stroke="none"/>
  <path d="M146.4 305.8c0-4.5-3.7-8.2-8.2-8.2-4.5 0-8.2 3.7-8.2 8.2 0 4.5-3.7 8.2-8.2 8.2-4.5 0-8.2-3.7-8.2-8.2 0-4.5-3.7-8.2-8.2-8.2-4.5 0-8.2 3.7-8.2 8.2 0 13.5 11 24.5 24.5 24.5 13.7 0 24.7-11 24.7-24.5z" fill="rgba(0, 0, 0, 1)" stroke="none"/>
</svg>
</g></svg></g></g>
<!-- /image 76092 -->
</defs><rect x="0" y="0" width="250" height="250" fill="rgba(255, 255, 255, 0)"></rect><use xlink:href="#transformed-76092" transform="translate(-250, -250)"></use><use xlink:href="#transformed-76092" transform="translate(0, -250)"></use><use xlink:href="#transformed-76092" transform="translate(250, -250)"></use><use xlink:href="#transformed-76092" transform="translate(-250, 0)"></use><use xlink:href="#transformed-76092" transform="translate(0, 0)"></use><use xlink:href="#transformed-76092" transform="translate(250, 0)"></use><use xlink:href="#transformed-76092" transform="translate(-250, 250)"></use><use xlink:href="#transformed-76092" transform="translate(0, 250)"></use><use xlink:href="#transformed-76092" transform="translate(250, 250)"></use></svg>