<?xml version="1.0" standalone="no"?>
<!DOCTYPE svg PUBLIC "-//W3C//DTD SVG 20010904//EN"
 "http://www.w3.org/TR/2001/REC-SVG-20010904/DTD/svg10.dtd">
<svg version="1.0" xmlns="http://www.w3.org/2000/svg"
 width="1024.000000pt" height="1024.000000pt" viewBox="0 0 1024.000000 1024.000000"
 preserveAspectRatio="xMidYMid meet">
<metadata>
Created by potrace 1.11, written by Peter Selinger 2001-2013
</metadata>
<g transform="translate(0.000000,1024.000000) scale(0.100000,-0.100000)"
fill="#000000" stroke="none">
<path d="M2712 10214 c-18 -14 -40 -40 -50 -57 -16 -30 -17 -163 -18 -2170
l-1 -2139 -34 -21 c-42 -25 -140 -89 -154 -99 -213 -158 -416 -388 -537 -608
-13 -25 -29 -54 -35 -65 -32 -58 -116 -270 -128 -325 -2 -8 -10 -44 -19 -80
-15 -64 -19 -84 -36 -185 -5 -27 -8 -873 -7 -1880 l2 -1830 24 -32 c44 -58 85
-71 218 -68 65 2 150 6 188 9 142 13 207 21 260 30 17 3 50 8 75 11 24 4 48 9
52 12 8 4 56 12 108 16 l24 2 1 -305 c1 -341 2 -344 72 -397 l37 -28 185 0
c163 1 270 6 416 19 81 8 167 17 183 21 9 1 42 6 72 9 30 4 78 11 105 16 28 5
66 11 85 14 19 3 68 12 107 20 40 9 87 18 105 21 18 3 49 10 68 15 19 5 47 11
62 14 15 2 31 7 35 9 5 3 25 8 46 11 21 3 47 11 58 16 10 6 19 8 19 6 0 -3 11
-1 25 4 14 5 36 12 48 14 24 5 273 83 297 93 8 3 20 7 25 9 41 10 171 60 173
67 2 4 9 7 16 7 12 0 99 33 171 65 17 7 73 32 125 55 126 55 390 192 518 268
57 34 106 62 108 62 3 0 10 5 17 10 7 6 75 52 152 103 128 84 388 273 425 308
8 8 31 26 50 41 19 15 49 38 65 53 17 14 57 50 90 78 155 134 393 373 522 523
23 27 52 60 64 74 115 130 319 405 446 600 64 98 70 107 168 275 55 95 200
378 243 475 11 25 30 67 42 94 51 113 193 496 184 496 -3 0 0 9 7 21 9 18 56
168 64 209 2 8 4 15 5 15 1 0 3 8 6 17 8 36 10 43 17 63 3 11 8 31 11 45 2 14
12 52 21 85 9 33 18 74 21 90 2 17 6 40 9 53 3 12 7 32 10 45 9 38 34 180 40
222 3 23 8 52 10 65 6 28 11 66 30 240 3 30 9 73 12 95 12 71 15 4915 3 4915
-5 0 -10 6 -10 13 0 7 -14 26 -31 43 -30 29 -32 29 -152 31 -95 2 -139 -2
-197 -17 -41 -11 -82 -22 -91 -24 -55 -14 -183 -78 -259 -129 -140 -95 -275
-252 -349 -407 l-31 -65 -1820 0 -1819 0 -37 75 c-131 266 -370 461 -665 543
-66 18 -115 24 -210 26 -120 2 -125 1 -157 -25z m309 -335 c139 -45 271 -140
361 -259 32 -42 98 -173 104 -204 13 -74 65 -134 129 -150 16 -4 913 -7 1992
-7 1938 0 1964 0 2008 20 29 13 52 32 66 55 11 19 20 36 19 38 -1 2 10 34 24
72 52 136 138 251 251 331 60 43 167 96 217 109 l27 6 0 -475 c0 -261 -3 -476
-7 -476 -19 -4 -54 -7 -127 -13 -44 -3 -91 -8 -105 -11 -14 -3 -40 -7 -59 -10
-83 -11 -119 -17 -161 -27 -25 -5 -58 -12 -73 -15 -15 -2 -96 -24 -180 -49
-84 -25 -171 -50 -194 -56 -24 -6 -43 -15 -43 -20 0 -4 -7 -8 -16 -8 -35 0
-410 -175 -442 -207 -7 -7 -17 -13 -22 -13 -31 0 -366 -233 -475 -330 -159
-143 -220 -202 -312 -305 -136 -153 -250 -306 -334 -447 -28 -48 -56 -92 -63
-97 -9 -8 -23 8 -52 57 -52 89 -169 263 -204 303 -8 9 -28 34 -45 55 -93 119
-305 340 -387 404 -17 14 -41 34 -52 45 -50 49 -307 235 -325 235 -6 0 -11 5
-11 10 0 6 -6 10 -14 10 -8 0 -16 4 -18 8 -5 12 -210 124 -323 177 -55 25
-108 50 -117 56 -10 5 -22 9 -27 9 -4 0 -29 9 -55 20 -25 12 -49 21 -53 22 -5
0 -35 11 -68 23 -33 13 -96 33 -140 44 -44 12 -87 25 -95 28 -18 7 -9 5 -135
32 -55 12 -120 24 -145 27 -54 7 -85 12 -85 14 0 1 -16 3 -35 5 -19 1 -64 6
-100 10 -36 3 -81 7 -100 9 l-35 3 -3 144 c-2 79 -3 151 -3 159 0 229 3 650 5
650 2 0 18 -5 37 -11z m104 -1293 c47 -5 138 -18 160 -22 11 -3 36 -7 55 -10
19 -3 51 -9 70 -14 19 -5 46 -11 60 -14 46 -9 174 -45 235 -66 33 -12 69 -24
80 -27 11 -3 34 -11 50 -18 17 -7 70 -30 118 -50 90 -37 290 -138 331 -168 6
-4 52 -33 101 -65 171 -111 285 -203 444 -362 127 -126 181 -186 251 -280 14
-18 30 -38 35 -45 6 -6 15 -18 20 -27 6 -9 37 -56 70 -104 33 -49 60 -91 60
-94 1 -3 11 -21 24 -40 12 -19 57 -104 99 -189 41 -85 89 -167 105 -182 33
-32 79 -44 137 -36 68 9 97 40 155 161 47 97 97 193 146 276 132 225 372 512
574 685 39 33 72 62 75 65 13 13 171 130 220 162 134 88 297 177 435 238 28
12 64 28 82 36 17 8 33 14 36 14 3 0 18 5 34 12 15 6 30 12 33 13 3 1 43 14
90 29 89 29 290 81 350 90 19 3 44 7 55 10 36 7 119 18 160 22 22 2 64 6 93 8
l52 5 0 -67 c2 -452 -2 -2977 -5 -3037 -2 -44 -7 -116 -11 -160 -3 -44 -7 -96
-8 -115 -2 -19 -6 -53 -9 -75 -4 -22 -9 -62 -12 -90 -3 -27 -7 -59 -9 -70 -2
-11 -7 -40 -10 -65 -3 -25 -8 -54 -10 -65 -2 -11 -7 -40 -11 -65 -4 -25 -9
-54 -11 -65 -2 -11 -6 -32 -9 -47 -3 -16 -13 -58 -21 -95 -9 -38 -18 -77 -20
-88 -5 -35 -13 -67 -24 -100 -6 -18 -12 -41 -15 -51 -10 -50 -78 -271 -115
-374 -22 -63 -42 -119 -44 -125 -1 -5 -7 -21 -13 -35 -34 -80 -63 -156 -63
-166 0 -6 -7 -17 -15 -24 -8 -7 -15 -18 -15 -25 0 -7 -17 -48 -37 -91 -20 -44
-37 -81 -38 -84 -6 -23 -146 -287 -209 -393 -25 -43 -46 -83 -46 -88 0 -5 -4
-9 -10 -9 -5 0 -10 -6 -10 -14 0 -8 -3 -16 -7 -18 -5 -1 -26 -32 -48 -68 -32
-53 -120 -182 -152 -225 -5 -5 -19 -27 -33 -47 -14 -21 -28 -38 -32 -38 -5 0
-8 -6 -8 -14 0 -8 -3 -16 -8 -18 -4 -1 -30 -32 -57 -68 -28 -36 -52 -67 -55
-70 -6 -6 -97 -115 -120 -143 -66 -82 -374 -395 -479 -487 -35 -30 -73 -64
-85 -75 -12 -11 -57 -49 -101 -85 -44 -35 -82 -67 -85 -70 -4 -5 -35 -27 -159
-117 -13 -10 -40 -30 -59 -45 -19 -16 -38 -28 -41 -28 -4 0 -17 -9 -29 -20
-12 -12 -22 -17 -22 -13 0 4 -4 3 -8 -3 -15 -22 -284 -188 -457 -281 -119 -64
-372 -188 -405 -198 -14 -4 -50 -20 -97 -41 -28 -13 -58 -24 -65 -24 -8 0 -18
-4 -23 -8 -21 -18 -349 -131 -485 -168 -154 -42 -288 -75 -310 -78 -14 -2 -32
-6 -40 -9 -8 -3 -28 -8 -45 -11 -16 -3 -41 -7 -55 -10 -14 -3 -37 -8 -52 -11
-15 -4 -41 -8 -58 -10 -43 -6 -102 -15 -126 -19 -12 -2 -45 -7 -75 -11 -30 -3
-65 -8 -79 -10 -14 -2 -54 -7 -90 -10 -36 -4 -78 -9 -95 -11 -16 -2 -89 -6
-161 -10 l-131 -6 0 247 0 247 36 15 c19 8 42 16 50 18 18 4 178 69 256 104
223 101 464 244 662 393 59 45 113 87 119 92 7 6 29 25 50 43 185 151 437 421
569 608 27 39 52 72 55 75 3 3 37 55 76 115 121 187 224 386 304 585 56 141
63 159 59 162 -1 2 3 14 10 27 15 28 77 234 96 321 51 226 75 393 90 606 10
143 5 399 -10 474 -2 14 -7 41 -10 60 -16 106 -62 270 -107 380 -51 127 -164
334 -215 395 -5 6 -22 28 -38 50 -56 75 -167 192 -260 276 -73 65 -264 199
-284 199 -5 0 -11 3 -13 8 -1 4 -52 31 -111 60 -399 195 -845 237 -1296 122
-44 -11 -82 -20 -86 -20 -3 0 -6 39 -6 88 0 48 0 95 0 105 0 9 0 64 0 122 0
58 0 111 0 118 0 6 0 131 0 277 0 146 0 272 0 280 0 8 0 98 0 200 0 102 0 192
0 200 0 8 0 134 0 280 0 146 0 272 0 280 0 8 1 158 1 332 l2 316 56 -4 c32 -3
71 -6 87 -8z m635 -2851 c271 -41 451 -113 682 -270 102 -70 290 -261 366
-372 102 -151 196 -353 228 -494 35 -155 48 -260 47 -399 -4 -574 -161 -1138
-453 -1630 -69 -117 -225 -336 -295 -415 -14 -16 -47 -54 -73 -84 -88 -102
-275 -280 -378 -361 -110 -86 -164 -125 -249 -182 -169 -112 -365 -217 -525
-282 -36 -15 -74 -31 -85 -37 -12 -6 -27 -11 -35 -13 -16 -3 -43 -13 -75 -26
-24 -11 -211 -68 -242 -75 -13 -3 -31 -7 -40 -9 -122 -29 -152 -35 -192 -41
-18 -2 -41 -7 -50 -9 -9 -3 -36 -7 -61 -10 -25 -3 -56 -8 -70 -11 -21 -4 -91
-10 -210 -18 l-25 -2 0 1660 c0 913 4 1689 8 1725 26 230 75 379 200 611 18
35 90 141 107 160 8 9 29 33 46 55 58 72 174 182 234 224 19 13 37 27 40 30
28 35 269 165 360 195 92 30 150 48 170 51 14 3 33 7 42 10 19 6 36 9 102 19
22 3 41 7 42 8 10 10 306 4 384 -8z"/>
<path d="M3925 7772 c-94 -10 -252 -75 -329 -134 -272 -210 -362 -546 -230
-860 29 -70 74 -137 134 -201 51 -54 173 -147 193 -147 7 0 17 -4 23 -8 14
-13 95 -44 129 -49 17 -2 45 -8 63 -13 18 -5 78 -7 135 -5 83 2 120 9 200 35
53 18 97 36 97 41 0 5 5 9 11 9 16 0 121 72 156 107 44 45 113 130 113 141 0
6 4 12 8 14 16 7 63 125 90 231 17 62 7 252 -17 330 -11 38 -25 75 -32 83 -6
8 -9 14 -5 14 13 0 -86 148 -127 190 -46 48 -104 100 -111 100 -2 0 -29 16
-61 35 -51 30 -145 65 -215 81 -31 6 -185 11 -225 6z m247 -366 c134 -62 223
-201 220 -343 -1 -64 -30 -168 -54 -199 -42 -55 -112 -115 -164 -140 -52 -25
-71 -29 -154 -30 -52 -1 -101 2 -110 6 -8 4 -37 19 -63 31 -43 21 -95 65 -135
114 -7 8 -25 41 -40 73 -22 48 -26 71 -26 147 -1 82 2 97 31 156 29 58 105
149 124 149 4 0 14 6 21 13 17 16 66 38 98 44 13 2 26 6 28 8 3 2 41 3 86 1
63 -2 94 -9 138 -30z"/>
<path d="M7138 7775 c-2 -2 -23 -5 -48 -8 -69 -9 -114 -18 -125 -27 -5 -4 -23
-10 -38 -14 -52 -12 -170 -91 -239 -159 -70 -70 -150 -193 -170 -262 -6 -22
-13 -44 -14 -50 -46 -157 -33 -328 36 -482 91 -201 272 -351 485 -401 80 -19
230 -23 300 -8 209 45 399 186 488 361 69 137 82 191 82 345 0 104 -4 137 -24
195 -22 69 -76 185 -89 195 -4 3 -20 22 -36 43 -36 50 -85 98 -127 127 -19 13
-36 27 -39 30 -18 23 -179 88 -265 106 -24 6 -173 13 -177 9z m193 -363 c46
-20 58 -28 124 -84 39 -33 92 -131 101 -184 6 -43 8 -130 2 -154 -31 -125
-106 -217 -214 -267 -61 -28 -80 -32 -148 -34 -120 -4 -234 52 -311 154 -68
90 -91 234 -53 336 20 52 54 108 95 157 24 27 103 73 156 90 59 18 189 11 248
-14z"/>
<path d="M2453 4380 c-119 -41 -140 -179 -57 -367 10 -24 22 -43 26 -43 5 0 8
-6 8 -14 0 -18 99 -114 148 -144 188 -114 449 -84 599 70 78 80 99 115 128
208 37 119 24 211 -35 264 -17 14 -30 24 -30 21 0 -3 -10 -1 -22 6 -29 16 -91
13 -126 -5 -52 -27 -79 -69 -92 -143 -13 -80 -45 -128 -99 -150 -107 -45 -216
23 -228 142 -14 125 -110 193 -220 155z"/>
<path d="M3747 4279 c-9 -6 -17 -7 -17 -3 0 4 -18 -11 -39 -33 -57 -58 -67
-105 -46 -221 23 -132 132 -270 265 -337 38 -19 70 -33 70 -31 0 2 21 -1 48
-8 26 -7 79 -12 117 -10 207 8 388 149 453 354 30 94 19 194 -26 244 -100 106
-273 39 -283 -109 -5 -62 -39 -116 -92 -145 -42 -23 -50 -24 -100 -13 -83 17
-124 65 -134 151 -6 61 -44 126 -85 147 -39 20 -107 27 -131 14z"/>
<path d="M2747 3385 c-53 -36 -71 -69 -73 -139 -5 -127 46 -249 143 -343 53
-52 155 -117 173 -111 3 1 15 -4 28 -11 12 -7 48 -15 80 -18 31 -3 59 -5 62
-6 3 0 31 3 62 7 239 32 420 230 422 462 1 69 -2 87 -20 111 -53 72 -130 91
-208 53 -64 -31 -87 -77 -98 -197 -1 -7 -5 -13 -10 -13 -4 0 -8 -6 -8 -13 0
-23 -45 -58 -93 -72 -108 -32 -202 42 -212 168 -3 38 -24 78 -54 107 -45 44
-141 51 -194 15z"/>
</g>
</svg>
