<svg xmlns="http://www.w3.org/2000/svg" viewBox="0 0 512.001 512.001"><path d="M328.105 287.731c-5.806-.466-10.902 3.863-11.371 9.674a391.27 391.27 0 0 1-.302 3.536c-.521 5.807 3.763 10.937 9.571 11.458.321.029.639.043.955.043 5.403 0 10.009-4.128 10.502-9.614.111-1.238.217-2.48.319-3.728.468-5.809-3.863-10.9-9.674-11.369zM191.134 106.044c-16.732 0-30.345 13.613-30.345 30.344 0 16.732 13.613 30.345 30.345 30.345s30.345-13.613 30.345-30.345c0-16.731-13.613-30.344-30.345-30.344zm.001 39.576c-5.09 0-9.232-4.141-9.232-9.232s4.141-9.231 9.232-9.231c5.09 0 9.232 4.14 9.232 9.231s-4.142 9.232-9.232 9.232zm129.731-39.576c-16.731 0-30.344 13.613-30.344 30.344 0 16.732 13.613 30.345 30.344 30.345 16.732 0 30.344-13.613 30.344-30.345 0-16.731-13.613-30.344-30.344-30.344zm0 39.576c-5.089 0-9.231-4.141-9.231-9.232s4.141-9.231 9.231-9.231 9.231 4.14 9.231 9.231-4.141 9.232-9.231 9.232z"/><path d="M392.792 433.058h-75.499c44.079-32.422 72.577-98.13 72.577-171.147 0-21.141-2.356-41.867-7.001-61.673 8.907-18.778 13.421-38.926 13.421-59.949 0-10.726-1.228-21.379-3.624-31.701a10.576 10.576 0 0 0-.454-1.993l-.074-.215c-7.387-29.755-24.694-56.69-48.813-75.895C318.279 10.541 288.083 0 256 0c-32.071 0-62.26 10.536-87.303 30.47-24.224 19.282-41.587 46.353-48.92 76.231-.052.186-.096.372-.137.558-2.603 10.718-3.928 21.828-3.928 33.03 0 21.026 4.515 41.172 13.421 59.947-4.645 19.808-7.001 40.535-7.001 61.675 0 73.018 28.498 138.725 72.578 171.147h-75.5c-5.83 0-10.557 4.726-10.557 10.557s4.726 10.557 10.557 10.557h79.632l-7.151 19.844a28.38 28.38 0 0 0 3.467 25.918A28.392 28.392 0 0 0 218.37 512h75.26c9.23 0 17.907-4.511 23.212-12.066a28.376 28.376 0 0 0 3.468-25.914l-7.153-19.849h79.633c5.829 0 10.557-4.726 10.557-10.557.001-5.829-4.724-10.556-10.555-10.556zM256 21.113c34.195 0 65.477 14.369 87.425 38.031a75.135 75.135 0 0 0-22.559-3.47c-20.141 0-39.082 7.841-53.341 22.088A75.963 75.963 0 0 0 256 92.556a76.026 76.026 0 0 0-11.531-14.802c-14.253-14.239-33.194-22.081-53.335-22.081a75.117 75.117 0 0 0-22.561 3.471c21.95-23.661 53.233-38.031 87.427-38.031zm-115.907 91.406c7.79-21.391 28.232-35.731 51.042-35.731 14.505 0 28.147 5.648 38.405 15.896 10.256 10.266 15.904 23.907 15.904 38.413v45.531c0 5.831 4.726 10.557 10.557 10.557 5.829 0 10.557-4.726 10.557-10.557v-45.531c0-14.506 5.649-28.147 15.897-38.405 10.266-10.256 23.907-15.904 38.413-15.904 22.828 0 43.274 14.358 51.052 35.778a119.114 119.114 0 0 1 3.257 27.724c0 19-4.331 37.147-12.874 53.938-9.168 18.034-22.897 33.561-39.707 44.902-19.696 13.295-42.724 20.323-66.594 20.323-23.87 0-46.897-7.028-66.596-20.325-16.798-11.335-30.521-26.85-39.691-44.874-.056-.107-.103-.219-.161-.323-8.443-16.707-12.728-34.751-12.728-53.641a118.89 118.89 0 0 1 3.267-27.771zm25.884 252.092c-14.871-29.854-22.733-65.367-22.733-102.7 0-11.858.828-23.555 2.413-35.005a141.137 141.137 0 0 0 27.159 26.334 474.393 474.393 0 0 0-.083 8.671c0 49.425 7.716 96.16 21.727 131.595 2.832 7.162 5.881 13.736 9.122 19.701-14.602-11.799-27.581-28.474-37.605-48.596zm79.467 126.276h-27.075c-3.399 0-5.281-2.158-5.933-3.086-.65-.926-2.039-3.426-.886-6.62l9.733-27.009h24.16v36.715zm54.12-3.086c-.651.928-2.534 3.086-5.933 3.086h-27.074v-36.715h24.16l9.733 27.014c1.153 3.19-.236 5.689-.886 6.615zm8.905-74.637c11.243-20.664 20.056-48.428 25.418-81.678.929-5.755-2.984-11.174-8.741-12.103-5.756-.928-11.174 2.985-12.102 8.741-9.845 61.039-33.054 104.187-56.483 104.929-.185.006-.378.004-.562.004-.184 0-.376.002-.605-.005-28.706-.91-60.642-69.481-61.528-166.984 19.217 9.512 40.376 14.497 62.132 14.497 21.757 0 42.916-4.985 62.133-14.496a438.45 438.45 0 0 1-.073 5.042c-.119 5.828 4.509 10.652 10.338 10.771l.221.002c5.729 0 10.432-4.586 10.55-10.34.065-3.175.098-6.416.098-9.633 0-2.796-.031-5.703-.084-8.671a141.148 141.148 0 0 0 27.16-26.335 255.145 255.145 0 0 1 2.413 35.005c0 37.334-7.862 72.846-22.733 102.701-10.009 20.098-22.971 36.758-37.552 48.553z"/></svg>