<svg xmlns="http://www.w3.org/2000/svg" width="235.511" height="235.511" viewBox="0 0 235.511 235.511"><path d="M181.232 135.068c0-.076.092-.124.092-.2l-.152-67.509c0-.519-.132-1.014-.16-1.527.028-.797.236-1.545.236-2.353C181.248 28.475 152.775 0 117.767 0 82.762 0 54.289 28.475 54.289 63.479c0 .597.164 1.138.172 1.728-.08.817-.244 1.591-.244 2.408l.026 8.682c0 .072-.088.126-.088.207l.276 126.118a4.425 4.425 0 0 0 4.426 4.424l24.173-.036-15.593 21.447a4.466 4.466 0 0 0-.345 4.617 4.431 4.431 0 0 0 3.955 2.437h93.649a4.423 4.423 0 0 0 4.42-4.429c0-1.427-.673-2.7-1.73-3.49l-15.057-20.706 24.594-.044c1.183-.017 2.316-.485 3.126-1.319.813-.821 1.307-1.963 1.307-3.121l-.124-67.334zM63.277 191.269l-.112-55.956c0-.076.097-.14.097-.208l-.097-39.814c9.588 16.375 26.121 27.972 45.659 30.761l-45.547 65.217zm54.137-100.894c.142 0 .18-.118.322-.142.141.024.194.142.329.142a4.428 4.428 0 0 0 4.42-4.426l-.008-18.476c-.03-6.708 2.546-13.044 7.268-17.809 4.692-4.743 10.948-7.372 17.572-7.384h.06c6.656 0 12.896 2.593 17.581 7.318 4.468 4.486 6.868 10.435 7.153 16.747-1.535 28.773-25.195 51.748-54.337 51.748-29.266 0-53.014-23.167-54.354-52.093.832-13.086 11.381-23.578 24.563-23.6h.06c13.708 0 24.886 11.243 24.912 25.091l.03 18.458a4.435 4.435 0 0 0 4.429 4.426zm54.873 5.104l.229 97.668-46.811-67.004c19.909-2.508 36.836-14.118 46.582-30.664zM117.783 8.862c21.475 0 39.961 12.594 48.867 30.689-5.627-3.955-12.263-6.139-19.256-6.139h-.076c-9.033.022-17.496 3.579-23.889 10.034-2.38 2.407-4.218 5.186-5.75 8.107-5.71-10.668-16.775-18.016-29.611-18.016h-.062c-7.057.006-13.619 2.254-19.051 6.013 8.869-18.102 27.35-30.688 48.828-30.688zm38.042 217.788H79.764l14.287-19.641 47.407-.093 14.367 19.734zm-55.339-28.521l17.296-23.78 17.228 23.704-34.524.076zm20.883-33.923c-1.687-2.292-5.488-2.292-7.175 0L89.52 198.153l-20.255.04 47.977-68.699 47.836 68.499-19.144.044-24.565-33.831z"/><circle cx="147.361" cy="64.547" r="8.477"/><circle cx="88.202" cy="64.547" r="8.477"/></svg>