<svg xmlns="http://www.w3.org/2000/svg" viewBox="0 0 466 466"><path d="M139.8 45c4.143 0 7.5-3.357 7.5-7.5s-3.357-7.5-7.5-7.5c-12.253 0-23.152 5.907-30 15.023C102.953 35.907 92.053 30 79.8 30c-4.143 0-7.5 3.357-7.5 7.5s3.357 7.5 7.5 7.5c12.406 0 22.5 10.094 22.5 22.5 0 4.143 3.357 7.5 7.5 7.5s7.5-3.357 7.5-7.5c0-12.406 10.094-22.5 22.5-22.5z"/><path d="M422.411 424.297L200.338 96.142c-5.44-8.039-13.984-14.288-24.005-17.705.642-12.645.967-26.383.967-40.937v-30c0-4.143-3.357-7.5-7.5-7.5h-120a7.499 7.499 0 0 0-7.5 7.5v30c0 57.634 5.026 100.198 15.819 133.955 11.204 35.041 28.415 59.516 45.405 80.706 3.173 5.901 6.513 11.827 9.749 17.563 18.762 33.257 38.02 67.4 45.635 128.945.011.503.07.993.176 1.467 1.819 15.173 2.938 31.993 3.171 50.864h-52.454c-4.143 0-7.5 3.357-7.5 7.5s3.357 7.5 7.5 7.5h120c4.143 0 7.5-3.357 7.5-7.5 0-19.311-2.089-36.706-5.754-52.5h20.321c4.143 0 7.5-3.357 7.5-7.5v-65.549c0-4.143-3.357-7.5-7.5-7.5a7.499 7.499 0 0 0-7.5 7.5V391h-16.913c-16.582-52.774-51.15-86.389-80.492-114.912-11.674-11.348-22.7-22.066-31.316-32.786l-.072-.09-.016-.02c-39.472-49.144-58.26-92.506-58.26-205.692V15h105v22.5c0 16.614-.43 32.124-1.277 46.099a7.5 7.5 0 0 0 5.941 7.793c8.797 1.853 16.63 6.771 20.952 13.157l133.232 196.875a174.457 174.457 0 0 1-19.335 1.077c-94.841 0-172-77.159-172-172 0-4.143-3.357-7.5-7.5-7.5s-7.5 3.357-7.5 7.5c0 103.112 83.888 187 187 187 9.625 0 19.265-.744 28.726-2.201l79.451 117.404a7.496 7.496 0 0 0 10.414 2.008 7.5 7.5 0 0 0 2.008-10.415zM177.248 451c-.203-16.354-1.068-31.286-2.477-45h21.627c4.143 0 7.5-3.357 7.5-7.5v-26.824a182.972 182.972 0 0 1 10.572 28.015c.098.612.262 1.201.498 1.754 4.094 14.811 6.668 31.201 7.22 49.556h-44.94zm11.65-105.437V391h-15.945c-5.984-42.622-17.451-72.693-29.973-97.849 15.922 15.576 32.247 32.272 45.918 52.412z"/></svg>