<svg xmlns="http://www.w3.org/2000/svg" viewBox="0 0 512 512"><path d="M428.033 162.858C422.975 72.232 347.87 0 256 0S89.025 72.232 83.967 162.858a95.563 95.563 0 0 0-.489 9.663v322.783c0 9.22 7.475 16.696 16.696 16.696h111.304c119.87 0 217.043-97.174 217.043-217.043V172.522a95.293 95.293 0 0 0-.488-9.664zM256 33.391c42.163 0 79.93 18.923 105.464 48.641a94.22 94.22 0 0 0-27.551-4.119c-32.296 0-60.834 16.291-77.913 41.06-17.079-24.77-45.617-41.06-77.913-41.06a94.22 94.22 0 0 0-27.551 4.119C176.07 52.314 213.837 33.391 256 33.391zm-92.831 327.251c-5.842-7.12-16.37-8.174-23.494-2.326a88.533 88.533 0 0 1-22.804 13.595V274.11c26.505 36.201 66.686 61.636 112.937 68.728-18.13 49.489-60.64 87.32-112.937 98.783v-34.418h-.001c16.082-4.569 30.884-12.325 43.979-23.061 7.129-5.849 8.168-16.37 2.32-23.5zm231.961-65.685c0 101.261-82.386 183.652-183.652 183.652H116.87v-2.97c70.214-12.524 126.789-63.872 147.277-131.009 53.767-2.53 101.081-29.682 130.984-70.521v20.848zM256 311.652c-76.718 0-139.13-62.413-139.13-139.13 0-33.75 27.462-61.217 61.217-61.217s61.217 27.468 61.217 61.217c0 9.22 7.475 16.696 16.696 16.696s16.696-7.475 16.696-16.696c0-33.75 27.462-61.217 61.217-61.217 33.755 0 61.217 27.468 61.217 61.217 0 76.717-62.412 139.13-139.13 139.13z"/><path d="M301.195 216.369a16.642 16.642 0 0 0-11.804-4.891 16.639 16.639 0 0 0-11.804 4.892L256 237.956l-21.587-21.588c-6.521-6.521-17.087-6.521-23.609 0-6.521 6.521-6.521 17.087 0 23.609l33.391 33.391c6.521 6.521 17.087 6.521 23.609 0l33.391-33.391c6.521-6.521 6.521-17.087 0-23.608zm-123.108-66.108c-12.277 0-22.261 9.99-22.261 22.261s9.984 22.261 22.261 22.261 22.261-9.99 22.261-22.261-9.984-22.261-22.261-22.261zm155.826 0c-12.277 0-22.261 9.99-22.261 22.261s9.984 22.261 22.261 22.261 22.261-9.99 22.261-22.261-9.984-22.261-22.261-22.261z"/></svg>