<svg id="Warstwa_1" data-name="Warstwa 1" xmlns="http://www.w3.org/2000/svg" viewBox="0 0 445.85 415.35"><title>logo_text_space_single</title><path d="M263.75,88.27a14,14,0,1,0,14,14A14,14,0,0,0,263.75,88.27Zm0,21.51a7.53,7.53,0,1,1,7.52-7.53A7.53,7.53,0,0,1,263.75,109.78Zm-62.6-21.51a14,14,0,1,0,14,14A14,14,0,0,0,201.15,88.27Zm0,21.51a7.53,7.53,0,1,1,7.53-7.53A7.54,7.54,0,0,1,201.15,109.78Z" style="fill:#010101"/><path d="M263.74,116.33a14.08,14.08,0,1,1,14.08-14.08A14.09,14.09,0,0,1,263.74,116.33Zm0-28a13.88,13.88,0,1,0,13.89,13.88A13.9,13.9,0,0,0,263.74,88.37Zm-62.59,28a14.08,14.08,0,1,1,14.08-14.08A14.1,14.1,0,0,1,201.15,116.33Zm0-28A13.88,13.88,0,1,0,215,102.25,13.9,13.9,0,0,0,201.15,88.37Zm62.59,21.51a7.63,7.63,0,1,1,7.63-7.63A7.63,7.63,0,0,1,263.74,109.88Zm0-15.06a7.43,7.43,0,1,0,7.43,7.43A7.44,7.44,0,0,0,263.74,94.82Zm-62.59,15.06a7.63,7.63,0,1,1,7.63-7.63A7.63,7.63,0,0,1,201.15,109.88Zm0-15.06a7.43,7.43,0,1,0,7.43,7.43A7.45,7.45,0,0,0,201.15,94.82Z" style="fill:#010101"/><path d="M287.45,39.45a20.46,20.46,0,0,0-19,12.91H196.35a20.45,20.45,0,0,0-19-12.91,3.23,3.23,0,0,0-3.23,3.23v83.57a36.8,36.8,0,0,0-18.92,32.14v67.1a3.22,3.22,0,0,0,3.22,3.23A70,70,0,0,0,174.1,227V238.4a3.23,3.23,0,0,0,3.23,3.23A113.47,113.47,0,0,0,290.67,128.28V42.68A3.23,3.23,0,0,0,287.45,39.45Zm-106.9,6.83a14,14,0,0,1,10.34,10.11A3.23,3.23,0,0,0,194,58.81h76.74a3.22,3.22,0,0,0,3.12-2.42,14,14,0,0,1,10.34-10.11V65.35a63.09,63.09,0,0,0-51.83,32.14,63.11,63.11,0,0,0-51.84-32.14Zm-3.48,173.2-2,.59a64,64,0,0,1-13.39,2.12v-63.8a30.33,30.33,0,0,1,60.65,0A64,64,0,0,1,178,219.18Zm107.15-91.2A107,107,0,0,1,180.55,235.12v-10a70.45,70.45,0,0,0,48.18-66.75,36.76,36.76,0,0,0-48.18-35V71.82a56.6,56.6,0,0,1,48.87,34.23,3.23,3.23,0,0,0,5.93,0,56.6,56.6,0,0,1,48.87-34.23Z" style="fill:#010101"/><path d="M187.5,158.2a3.23,3.23,0,1,0-6.45,0,3.23,3.23,0,0,1-6.46,0,3.23,3.23,0,1,0-6.45,0,9.68,9.68,0,0,0,19.36,0Z" style="fill:#010101"/><path d="M190.72,174.33a3.22,3.22,0,0,0-3.22,3.23,3.23,3.23,0,0,1-6.45,0,3.23,3.23,0,0,0-6.46,0,9.68,9.68,0,0,0,19.36,0A3.22,3.22,0,0,0,190.72,174.33Z" style="fill:#010101"/><path d="M213,160.28a3.23,3.23,0,0,0-6.45,0,3.23,3.23,0,1,1-6.45,0,3.23,3.23,0,0,0-6.46,0,9.68,9.68,0,1,0,19.36,0Z" style="fill:#010101"/><path d="M58.53,298.75v35.81H52.25V298.75h-11v-5.57H69.5v5.57Z" style="fill:#231f20"/><path d="M72.88,334.56V303.73H79v6.11h.72a8.05,8.05,0,0,1,2.46-4.54,6.76,6.76,0,0,1,4.59-1.57h1.54V310H85.68a8.44,8.44,0,0,0-5,1.24,4.59,4.59,0,0,0-1.72,4v19.39Z" style="fill:#231f20"/><path d="M113.49,334.56a4.74,4.74,0,0,1-3.5-1.24,5.36,5.36,0,0,1-1.24-3.92H108a7.28,7.28,0,0,1-2.69,4.33,8.09,8.09,0,0,1-5,1.54q-4.39,0-6.55-2.34a9.34,9.34,0,0,1-2.17-6.61,8.62,8.62,0,0,1,3-7.06c2-1.62,4.88-2.43,8.71-2.43h5.1v-3a6.26,6.26,0,0,0-1.3-4.36,5.46,5.46,0,0,0-4.15-1.39,7.09,7.09,0,0,0-3.77.95,8.59,8.59,0,0,0-2.87,3.2L92.68,309a12.55,12.55,0,0,1,4.18-4.27,11.92,11.92,0,0,1,6.49-1.66c3.72,0,6.5.9,8.36,2.7s2.79,4.43,2.79,7.91v15.89h2.9v5Zm-11.15-4a6.65,6.65,0,0,0,2.4-.42,6,6,0,0,0,1.9-1.12,5.6,5.6,0,0,0,1.28-1.69,4.86,4.86,0,0,0,.47-2.11v-4.27h-4.8c-3.84,0-5.75,1.39-5.75,4.15v1.43a3.68,3.68,0,0,0,1.21,3.05A5.12,5.12,0,0,0,102.34,330.53Z" style="fill:#231f20"/><path d="M126.83,297.86q-3.67,0-3.68-3.14v-1.07q0-3.13,3.68-3.14t3.67,3.14v1.07Q130.5,297.86,126.83,297.86Zm-3,5.87h6.11v30.83H123.8Z" style="fill:#231f20"/><path d="M138.8,334.56V303.73h6.11v5.1h.71q1.84-5.81,7.59-5.81a7.8,7.8,0,0,1,6.43,2.82q2.28,2.81,2.28,8.27v20.45h-6.1V314.94a8.39,8.39,0,0,0-1.25-5,4.49,4.49,0,0,0-3.91-1.72,6,6,0,0,0-4.09,1.45,5.1,5.1,0,0,0-1.66,4.06v20.81Z" style="fill:#231f20"/><path d="M173.6,297.86q-3.67,0-3.67-3.14v-1.07q0-3.13,3.67-3.14t3.68,3.14v1.07Q177.28,297.86,173.6,297.86Zm-3,5.87h6.11v30.83h-6.11Z" style="fill:#231f20"/><path d="M185.58,334.56V303.73h6.11v5.1h.71Q194.23,303,200,303a7.81,7.81,0,0,1,6.43,2.82q2.28,2.81,2.28,8.27v20.45h-6.11V314.94a8.4,8.4,0,0,0-1.24-5,4.49,4.49,0,0,0-3.91-1.72,6,6,0,0,0-4.09,1.45,5.1,5.1,0,0,0-1.66,4.06v20.81Z" style="fill:#231f20"/><path d="M241.84,337.62a10.35,10.35,0,0,1-.77,4.19,6.87,6.87,0,0,1-2.49,3,12.76,12.76,0,0,1-4.42,1.77,31.66,31.66,0,0,1-6.61.59,30.13,30.13,0,0,1-5.92-.5,12.15,12.15,0,0,1-3.95-1.45,5.51,5.51,0,0,1-2.16-2.33,7.29,7.29,0,0,1-.65-3.16,5.34,5.34,0,0,1,1.27-3.75,5.91,5.91,0,0,1,3.53-1.74v-1a4.79,4.79,0,0,1-2.46-1.78,4.92,4.92,0,0,1-.8-2.85,4.42,4.42,0,0,1,1.33-3.35,6.55,6.55,0,0,1,3.59-1.63v-.71q-5-2.55-5-9.28,0-5.12,2.81-7.84t8.39-2.74a13.5,13.5,0,0,1,5,.89v-1q0-3.79,3.68-3.79h4.27V304h-5.69v1.37a7.9,7.9,0,0,1,2.93,3.3,11.12,11.12,0,0,1,1,5q0,5.11-2.82,7.82c-1.87,1.8-4.67,2.71-8.39,2.71a16.7,16.7,0,0,1-2-.12c-.65-.08-1.28-.18-1.87-.3a3.19,3.19,0,0,0-1.78,1.22,3.23,3.23,0,0,0-.59,1.86,2.08,2.08,0,0,0,.8,1.78,4.47,4.47,0,0,0,2.64.6h7.41c3.52,0,6,.72,7.5,2.18A8.42,8.42,0,0,1,241.84,337.62Zm-5.75.62a3.29,3.29,0,0,0-1.12-2.67,6,6,0,0,0-3.8-.95h-9.49a4.2,4.2,0,0,0-1.77,3.68,4,4,0,0,0,1.33,3.23c.89.77,2.4,1.15,4.54,1.15h3.67a9.09,9.09,0,0,0,5.07-1.09A3.81,3.81,0,0,0,236.09,338.24Zm-8.54-18.56q5.28,0,5.28-5.22v-1.78q0-5.21-5.28-5.21t-5.27,5.21v1.78Q222.28,319.68,227.55,319.68Z" style="fill:#231f20"/><path d="M270.88,334.56H264.6V293.18H281c3.56,0,6.23,1.06,8,3.17s2.7,5.15,2.7,9.1a15,15,0,0,1-1.78,7.77,8.72,8.72,0,0,1-5.33,4l7.88,17.37h-7l-7.18-16.9h-7.41Zm9.55-22.17a4.69,4.69,0,0,0,3.41-1.15,5.15,5.15,0,0,0,1.15-3.75v-3.84a5.15,5.15,0,0,0-1.15-3.75,4.69,4.69,0,0,0-3.41-1.15h-9.55v13.64Z" style="fill:#d89728"/><path d="M310.54,335.27a14.6,14.6,0,0,1-5.33-.95,10.39,10.39,0,0,1-4.15-2.93,14.27,14.27,0,0,1-2.7-5,23.72,23.72,0,0,1-1-7.23,26.32,26.32,0,0,1,.89-7.27,13.19,13.19,0,0,1,2.58-5,10.48,10.48,0,0,1,4-2.9,14.08,14.08,0,0,1,5.31-1q5.87,0,9.16,3.85t3.29,12.28v1.54H303.79v1.95a7.89,7.89,0,0,0,1.86,5.64,6.78,6.78,0,0,0,5.13,2,8,8,0,0,0,4.6-1.24,10.11,10.11,0,0,0,3.05-3.5l3.56,3.38a12.39,12.39,0,0,1-11.45,6.4Zm-.35-27.39a6,6,0,0,0-4.74,1.87q-1.67,1.86-1.66,5.6v1.25h12.39v-1.25Q316.18,307.88,310.19,307.88Z" style="fill:#d89728"/><path d="M337.22,334.56q-3.2,0-4.65-1.42t-1.45-4.63V308.77h-4.27v-5h2.37a2.38,2.38,0,0,0,2-.68,3.74,3.74,0,0,0,.5-2.16v-5.58h5.51v8.42H343v5h-5.75v20.75h5.34v5Z" style="fill:#d89728"/><path d="M369.48,334.56a4.72,4.72,0,0,1-3.5-1.24,5.36,5.36,0,0,1-1.25-3.92H364a7.24,7.24,0,0,1-2.7,4.33,8.05,8.05,0,0,1-5,1.54q-4.38,0-6.55-2.34a9.38,9.38,0,0,1-2.16-6.61,8.64,8.64,0,0,1,3-7.06c2-1.62,4.88-2.43,8.72-2.43h5.1v-3a6.21,6.21,0,0,0-1.31-4.36,5.44,5.44,0,0,0-4.15-1.39,7.05,7.05,0,0,0-3.76.95,8.7,8.7,0,0,0-2.88,3.2L348.67,309a12.46,12.46,0,0,1,4.18-4.27,11.9,11.9,0,0,1,6.49-1.66q5.57,0,8.36,2.7c1.85,1.8,2.78,4.43,2.78,7.91v15.89h2.91v5Zm-11.15-4a6.65,6.65,0,0,0,2.4-.42,6.08,6.08,0,0,0,1.9-1.12,5.41,5.41,0,0,0,1.27-1.69,4.73,4.73,0,0,0,.48-2.11v-4.27h-4.81c-3.83,0-5.75,1.39-5.75,4.15v1.43a3.68,3.68,0,0,0,1.22,3.05A5.12,5.12,0,0,0,358.33,330.53Z" style="fill:#d89728"/><path d="M382.82,297.86c-2.46,0-3.68-1.05-3.68-3.14v-1.07c0-2.09,1.22-3.14,3.68-3.14s3.67,1.05,3.67,3.14v1.07Q386.49,297.86,382.82,297.86Zm-3,5.87h6.11v30.83h-6.11Z" style="fill:#d89728"/><path d="M400.84,334.56q-3.21,0-4.63-1.45a6.27,6.27,0,0,1-1.42-4.54V290.69h6.11v38.83h3.67v5Z" style="fill:#d89728"/><path d="M166.37,373.52a4.57,4.57,0,0,1-2.12-.47,4.39,4.39,0,0,1-1.54-1.35l1.14-1.06a3.63,3.63,0,0,0,1.11,1,2.84,2.84,0,0,0,1.43.36c1.29,0,1.94-.6,1.94-1.79a1.58,1.58,0,0,0-.35-1.1,2.28,2.28,0,0,0-1.19-.59l-.89-.19a4.21,4.21,0,0,1-2.17-1.06,3.42,3.42,0,0,1,.22-4.38,3.79,3.79,0,0,1,2.56-.79,4.34,4.34,0,0,1,2,.4,3.71,3.71,0,0,1,1.4,1.26l-1.14,1a2.94,2.94,0,0,0-.95-.89,2.63,2.63,0,0,0-1.32-.3,2.06,2.06,0,0,0-1.34.37,1.5,1.5,0,0,0-.44,1.21,1.38,1.38,0,0,0,.35,1,2.29,2.29,0,0,0,1.15.54l.89.21a6.11,6.11,0,0,1,1.33.43,2.8,2.8,0,0,1,.9.64,2.14,2.14,0,0,1,.51.89,4.23,4.23,0,0,1,.16,1.19,3.24,3.24,0,0,1-1,2.52A3.84,3.84,0,0,1,166.37,373.52Z" style="fill:#231f20"/><path d="M181,373.33l-.84-3h-3.68l-.85,3H174l3.27-11h2.11l3.29,11Zm-2.25-7.88-.35-1.61h-.2l-.34,1.61-1,3.47h2.88Z" style="fill:#231f20"/><path d="M187.36,373.33v-11H189v9.52h4v1.48Z" style="fill:#231f20"/><path d="M197.69,373.33v-11H204v1.48h-4.68V367h4.22v1.45h-4.22v3.38H204v1.48Z" style="fill:#231f20"/><path d="M212.25,373.52a4.54,4.54,0,0,1-2.12-.47,4.31,4.31,0,0,1-1.54-1.35l1.14-1.06a3.52,3.52,0,0,0,1.11,1,2.8,2.8,0,0,0,1.42.36c1.3,0,1.94-.6,1.94-1.79a1.58,1.58,0,0,0-.34-1.1,2.32,2.32,0,0,0-1.19-.59l-.89-.19a4.21,4.21,0,0,1-2.17-1.06,3.38,3.38,0,0,1,.22-4.38,3.77,3.77,0,0,1,2.56-.79,4.4,4.4,0,0,1,2,.4,3.79,3.79,0,0,1,1.4,1.26l-1.14,1a2.94,2.94,0,0,0-.95-.89,2.63,2.63,0,0,0-1.32-.3A2,2,0,0,0,211,364a1.47,1.47,0,0,0-.45,1.21,1.38,1.38,0,0,0,.36,1,2.24,2.24,0,0,0,1.15.54l.89.21a6.3,6.3,0,0,1,1.33.43,3,3,0,0,1,.9.64,2.38,2.38,0,0,1,.51.89,4.25,4.25,0,0,1,.15,1.19,3.24,3.24,0,0,1-.94,2.52A3.84,3.84,0,0,1,212.25,373.52Z" style="fill:#231f20"/><path d="M43,362.33h4.43a2.45,2.45,0,0,1,1.93.73,3,3,0,0,1,.65,2.11,2.71,2.71,0,0,1-.45,1.66,1.74,1.74,0,0,1-1.3.68v.19a2,2,0,0,1,1.52.69,2.52,2.52,0,0,1,.44.79,3.12,3.12,0,0,1,.15,1,4.37,4.37,0,0,1-.18,1.29,3.23,3.23,0,0,1-.5,1,2.43,2.43,0,0,1-.79.64,2.33,2.33,0,0,1-1,.23H43ZM44.7,367h2.46a1.16,1.16,0,0,0,.84-.29,1.3,1.3,0,0,0,.3-1v-.7a1.3,1.3,0,0,0-.3-1,1.16,1.16,0,0,0-.84-.29H44.7Zm0,4.84h2.72a1.23,1.23,0,0,0,.91-.32,1.44,1.44,0,0,0,.32-1v-.71a1.44,1.44,0,0,0-.32-1,1.23,1.23,0,0,0-.91-.32H44.7Z" style="fill:#231f20"/><path d="M57.07,373.33H55.41v-11h4.32a2.62,2.62,0,0,1,2.12.84,3.62,3.62,0,0,1,.72,2.42,4.07,4.07,0,0,1-.47,2.07,2.36,2.36,0,0,1-1.41,1l2.08,4.62H60.92L59,368.84h-2Zm2.52-5.9a1.22,1.22,0,0,0,.9-.3,1.36,1.36,0,0,0,.31-1v-1a1.32,1.32,0,0,0-.31-1,1.19,1.19,0,0,0-.9-.31H57.07v3.62Z" style="fill:#231f20"/><path d="M74.17,373.33l-.85-3H69.64l-.84,3H67.17l3.27-11h2.12l3.28,11Zm-2.26-7.88-.34-1.61h-.2L71,365.45l-1,3.47h2.88Z" style="fill:#231f20"/><path d="M83,366.73l-.83-2.05H82l.13,2.08v6.57h-1.6v-11H82.4l3.26,6.6L86.5,371h.21l-.13-2.08v-6.57h1.6v11H86.25Z" style="fill:#231f20"/><path d="M93.6,362.33h3.6a4.45,4.45,0,0,1,1.73.31,3.12,3.12,0,0,1,1.29,1,4.67,4.67,0,0,1,.79,1.71,11.21,11.21,0,0,1,0,5,4.67,4.67,0,0,1-.79,1.71,3.18,3.18,0,0,1-1.29,1,4.45,4.45,0,0,1-1.73.32H93.6Zm3.6,9.52a2.14,2.14,0,0,0,1.69-.7,3,3,0,0,0,.61-2v-2.54a3,3,0,0,0-.61-2.05,2.1,2.1,0,0,0-1.69-.7H95.26v8Z" style="fill:#231f20"/><path d="M288.39,368.46H284v4.87h-1.65v-11H284V367h4.36v-4.68h1.66v11h-1.66Z" style="fill:#231f20"/><path d="M299.33,373.52a4.5,4.5,0,0,1-1.77-.33,3.29,3.29,0,0,1-1.34-1,5,5,0,0,1-.85-1.77,12,12,0,0,1,0-5.16,4.87,4.87,0,0,1,.85-1.77,3.41,3.41,0,0,1,1.34-1,4.69,4.69,0,0,1,1.77-.32,4.77,4.77,0,0,1,1.77.32,3.38,3.38,0,0,1,1.33,1,4.71,4.71,0,0,1,.85,1.77,11.62,11.62,0,0,1,0,5.16,4.79,4.79,0,0,1-.85,1.77,3.26,3.26,0,0,1-1.33,1A4.58,4.58,0,0,1,299.33,373.52Zm0-1.48a2.24,2.24,0,0,0,1.81-.77,3.18,3.18,0,0,0,.64-2.12V366.5a3.15,3.15,0,0,0-.64-2.11,2.52,2.52,0,0,0-3.63,0,3.15,3.15,0,0,0-.64,2.11v2.65a3.18,3.18,0,0,0,.64,2.12A2.24,2.24,0,0,0,299.33,372Z" style="fill:#231f20"/><path d="M311.51,373.52a4.57,4.57,0,0,1-2.12-.47,4.39,4.39,0,0,1-1.54-1.35l1.14-1.06a3.74,3.74,0,0,0,1.11,1,2.84,2.84,0,0,0,1.43.36c1.29,0,1.94-.6,1.94-1.79a1.58,1.58,0,0,0-.35-1.1,2.24,2.24,0,0,0-1.18-.59l-.9-.19a4.14,4.14,0,0,1-2.16-1.06,3.4,3.4,0,0,1,.21-4.38,3.79,3.79,0,0,1,2.56-.79,4.34,4.34,0,0,1,2,.4,3.71,3.71,0,0,1,1.4,1.26l-1.14,1a2.94,2.94,0,0,0-.95-.89,2.61,2.61,0,0,0-1.32-.3,2.06,2.06,0,0,0-1.34.37,1.5,1.5,0,0,0-.44,1.21,1.42,1.42,0,0,0,.35,1,2.33,2.33,0,0,0,1.15.54l.89.21a6.11,6.11,0,0,1,1.33.43,2.8,2.8,0,0,1,.9.64,2.14,2.14,0,0,1,.51.89,3.9,3.9,0,0,1,.16,1.19,3.24,3.24,0,0,1-.95,2.52A3.84,3.84,0,0,1,311.51,373.52Z" style="fill:#231f20"/><path d="M320,373.33v-11h4.32a2.62,2.62,0,0,1,2.12.84,4.53,4.53,0,0,1,0,4.87,2.62,2.62,0,0,1-2.12.84h-2.66v4.45Zm1.66-5.93h2.52a1.25,1.25,0,0,0,.9-.3,1.4,1.4,0,0,0,.3-1v-1a1.35,1.35,0,0,0-.3-1,1.22,1.22,0,0,0-.9-.31h-2.52Z" style="fill:#231f20"/><path d="M331.56,373.33V372h1.33v-8.32h-1.33v-1.34h4.32v1.34h-1.33V372h1.33v1.34Z" style="fill:#231f20"/><path d="M344.89,363.81v9.52h-1.65v-9.52h-2.9v-1.48h7.45v1.48Z" style="fill:#231f20"/><path d="M357.61,373.33l-.84-3h-3.68l-.84,3h-1.63l3.27-11H356l3.29,11Zm-2.25-7.88-.34-1.61h-.21l-.34,1.61-1,3.47h2.88Z" style="fill:#231f20"/><path d="M363.94,373.33v-11h1.66v9.52h4v1.48Z" style="fill:#231f20"/><path d="M374.06,373.33V372h1.33v-8.32h-1.33v-1.34h4.32v1.34h-1.33V372h1.33v1.34Z" style="fill:#231f20"/><path d="M387.39,363.81v9.52h-1.66v-9.52h-2.89v-1.48h7.45v1.48Z" style="fill:#231f20"/><path d="M397.78,373.33v-4.26l-3.38-6.74h1.87l2.26,4.92h.21l2.24-4.92h1.83l-3.37,6.74v4.26Z" style="fill:#231f20"/><line x1="119.33" y1="367.83" x2="144.47" y2="367.83" style="fill:none;stroke:#d89728;stroke-miterlimit:10;stroke-width:1.41732287406921px"/><line x1="236.65" y1="367.83" x2="261.79" y2="367.83" style="fill:none;stroke:#d89728;stroke-miterlimit:10;stroke-width:1.41732287406921px"/></svg>