<svg xmlns="http://www.w3.org/2000/svg" viewBox="0 0 512 512"><path d="M140.29 199.012c-8.971-17.634-14.02-37.587-14.02-58.723 0-10.618 1.271-20.937 3.691-30.803 8.906-25.202 32.924-43.255 61.176-43.255 17.909 0 34.129 7.259 45.873 18.993 11.734 11.744 18.993 27.964 18.993 45.873 0-17.909 7.259-34.129 18.993-45.873 11.744-11.734 27.964-18.993 45.873-18.993 28.262 0 52.293 18.075 61.187 43.299 2.409 9.856 3.679 20.163 3.679 30.759 0 21.136-5.049 41.09-14.02 58.723-10.032 19.733-24.97 36.56-43.211 48.868-20.705 13.976-45.652 22.13-72.5 22.13s-51.795-8.154-72.5-22.13c-18.245-12.308-33.182-29.136-43.214-48.868zm200.365-62.624c0-10.927-8.861-19.787-19.787-19.787-10.926 0-19.787 8.861-19.787 19.787s8.861 19.787 19.787 19.787c10.925.001 19.787-8.859 19.787-19.787zm-129.733 0c0-10.927-8.861-19.787-19.787-19.787-10.927 0-19.787 8.861-19.787 19.787s8.861 19.787 19.787 19.787c10.926.002 19.787-8.859 19.787-19.787z" fill="#FFF3E6"/><path d="M371.711 199.012c4.916 19.601 7.602 40.791 7.602 62.899 0 80.367-35.41 148.548-84.488 172.512-11.932 5.823-24.66 9.038-37.886 9.181 39.73-1.259 71.771-82.124 71.771-181.694 0-4.718-.077-9.402-.21-14.032a130.207 130.207 0 0 0 43.211-48.866zm10.342-89.482c-8.894-25.224-32.924-43.299-61.187-43.299-17.909 0-34.129 7.259-45.873 18.993C263.259 96.968 256 113.188 256 131.097c0-17.909-7.259-34.129-18.993-45.873-11.744-11.734-27.964-18.993-45.873-18.993-28.251 0-52.27 18.053-61.176 43.255C143.768 52.707 194.967 10.557 256 10.557c61.055 0 112.254 42.172 126.053 98.973z" fill="#CCC2B8"/><circle cx="320.861" cy="136.393" r="19.787" fill="#FFFAF5"/><path d="M328.501 247.88c.133 4.629.21 9.314.21 14.032 0 99.57-32.041 180.434-71.771 181.693-.309.011-.63.011-.94.011-.309 0-.63 0-.94-.011-39.73-1.259-71.771-82.124-71.771-181.693 0-4.718.077-9.402.21-14.032 20.705 13.976 45.652 22.13 72.5 22.13s51.797-8.154 72.502-22.13z" fill="#FFF3E6"/><path d="M310.381 477.601c4.188 11.601-4.419 23.842-16.749 23.842h-37.631v-57.829h42.128l12.252 33.987z" fill="#CCC2B8"/><path d="M256.001 443.615v57.829H218.37c-12.33 0-20.937-12.242-16.749-23.842l12.253-33.985h42.128v-.002zm-.94-.011c-13.225-.144-25.953-3.359-37.886-9.181-49.078-23.965-84.488-92.145-84.488-172.512 0-22.108 2.685-43.299 7.602-62.899 10.032 19.733 24.97 36.56 43.211 48.868-.133 4.629-.21 9.314-.21 14.032 0 99.568 32.041 180.433 71.771 181.692z" fill="#CCC2B8"/><circle cx="191.14" cy="136.393" r="19.787" fill="#FFFAF5"/><path d="M328.105 287.731c-5.806-.466-10.902 3.863-11.371 9.674a391.27 391.27 0 0 1-.302 3.536c-.521 5.807 3.763 10.937 9.571 11.458.321.029.639.043.955.043 5.403 0 10.009-4.128 10.502-9.614.111-1.238.217-2.48.319-3.728.468-5.81-3.863-10.9-9.674-11.369zM221.479 136.388c0-16.731-13.613-30.344-30.345-30.344s-30.345 13.613-30.345 30.344c0 16.732 13.613 30.345 30.345 30.345s30.345-13.612 30.345-30.345zm-39.576 0c0-5.09 4.141-9.231 9.232-9.231 5.09 0 9.232 4.14 9.232 9.231 0 5.09-4.141 9.232-9.232 9.232-5.091 0-9.232-4.141-9.232-9.232zm138.963 30.346c16.732 0 30.344-13.613 30.344-30.345 0-16.731-13.613-30.344-30.344-30.344s-30.344 13.613-30.344 30.344c0 16.732 13.613 30.345 30.344 30.345zm0-39.576c5.089 0 9.231 4.14 9.231 9.231 0 5.09-4.141 9.232-9.231 9.232-5.089 0-9.231-4.141-9.231-9.232 0-5.091 4.142-9.231 9.231-9.231z"/><path d="M108.652 443.615c0 5.83 4.726 10.557 10.557 10.557h79.632l-7.151 19.844a28.38 28.38 0 0 0 3.467 25.918A28.392 28.392 0 0 0 218.369 512h75.262c9.23 0 17.907-4.511 23.212-12.066a28.376 28.376 0 0 0 3.468-25.914l-7.153-19.849h79.633c5.829 0 10.557-4.726 10.557-10.557s-4.727-10.557-10.557-10.557h-75.498c44.079-32.422 72.577-98.13 72.577-171.147 0-21.141-2.356-41.867-7.001-61.673 8.907-18.778 13.421-38.926 13.421-59.949 0-10.726-1.228-21.379-3.624-31.701a10.576 10.576 0 0 0-.454-1.993l-.074-.215c-7.387-29.755-24.694-56.689-48.813-75.895C318.279 10.541 288.083 0 256.001 0c-32.071 0-62.26 10.536-87.303 30.47-24.224 19.282-41.587 46.353-48.92 76.231-.052.186-.096.372-.137.558-2.603 10.718-3.928 21.828-3.928 33.03 0 21.026 4.515 41.172 13.421 59.947-4.645 19.808-7.001 40.535-7.001 61.675 0 73.018 28.498 138.725 72.578 171.147h-75.5c-5.833 0-10.559 4.726-10.559 10.557zm103.784 44.186c-.65-.926-2.038-3.426-.886-6.62l9.733-27.009h24.16v36.715h-27.075c-3.398 0-5.28-2.158-5.932-3.086zm88.015-6.616c1.153 3.191-.236 5.69-.887 6.616-.651.928-2.534 3.086-5.933 3.086h-27.074v-36.715h24.16l9.734 27.013zm45.573-116.574c-10.012 20.099-22.973 36.758-37.554 48.553 11.243-20.664 20.056-48.428 25.418-81.678.929-5.756-2.984-11.174-8.741-12.103-5.756-.928-11.174 2.985-12.102 8.741-9.845 61.039-33.054 104.187-56.483 104.929-.185.006-.378.004-.562.004-.184 0-.376.002-.605-.005-28.706-.91-60.642-69.481-61.528-166.984 19.217 9.512 40.376 14.497 62.133 14.497 21.757 0 42.916-4.985 62.133-14.496a438.45 438.45 0 0 1-.073 5.042c-.119 5.828 4.509 10.652 10.338 10.771l.221.002c5.729 0 10.432-4.586 10.55-10.34.065-3.175.098-6.416.098-9.633 0-2.796-.031-5.703-.084-8.671a141.148 141.148 0 0 0 27.16-26.335 255.145 255.145 0 0 1 2.413 35.005c.001 37.333-7.861 72.846-22.732 102.701zm-196.31-170.357c-.054-.108-.102-.22-.16-.324-8.443-16.707-12.728-34.751-12.728-53.641 0-9.422 1.102-18.755 3.268-27.77 7.79-21.391 28.232-35.731 51.042-35.731 14.505 0 28.147 5.648 38.405 15.896 10.256 10.266 15.904 23.907 15.904 38.413v45.531c0 5.83 4.726 10.557 10.557 10.557 5.829 0 10.557-4.726 10.557-10.557v-45.531c0-14.506 5.649-28.147 15.897-38.405 10.266-10.256 23.907-15.904 38.413-15.904 22.828 0 43.274 14.358 51.052 35.778a119.114 119.114 0 0 1 3.257 27.724c0 19-4.331 37.147-12.874 53.938-9.168 18.034-22.897 33.561-39.707 44.902-19.696 13.295-42.724 20.323-66.594 20.323s-46.897-7.028-66.596-20.325c-16.8-11.334-30.524-26.85-39.693-44.874zM256.001 21.113c34.195 0 65.477 14.369 87.425 38.031a75.135 75.135 0 0 0-22.559-3.47c-20.141 0-39.082 7.842-53.341 22.088a75.963 75.963 0 0 0-11.525 14.794 76.065 76.065 0 0 0-11.531-14.802c-14.253-14.239-33.195-22.081-53.335-22.081a75.117 75.117 0 0 0-22.561 3.471c21.949-23.661 53.232-38.031 87.427-38.031zm-90.024 343.498c-14.871-29.854-22.733-65.367-22.733-102.7 0-11.858.828-23.555 2.413-35.005a141.137 141.137 0 0 0 27.159 26.334 474.393 474.393 0 0 0-.083 8.671c0 49.425 7.716 96.16 21.727 131.595 2.832 7.162 5.881 13.736 9.122 19.701-14.602-11.799-27.581-28.474-37.605-48.596z"/></svg>