<svg xmlns="http://www.w3.org/2000/svg" viewBox="0 0 512 512"><path d="M261.794 0h-11.588C165.319 0 96.504 68.815 96.504 153.702v321.776h100.225l118.545-4.666c57.734-15.569 100.221-68.299 100.221-130.954V153.702C415.496 68.815 346.681 0 261.794 0z" fill="#D6AF47"/><path d="M213.907 309.301c-18.963 55.485-56.448 93.818-84.555 116.205a307.175 307.175 0 0 1-32.848 22.818v27.154h13.079c10.676-6.302 23.739-14.853 37.647-25.859 45.22-35.789 78.093-80.955 95.065-130.616l-28.388-9.702z" fill="#9B731A"/><path d="M261.794 0H256v473.145l59.275-2.333c57.734-15.569 100.221-68.299 100.221-130.954V153.701C415.496 68.815 346.681 0 261.794 0z" fill="#BA942F"/><path d="M192.554 90.9c-19.216 17.339-31.296 42.437-31.296 70.358C161.258 213.582 203.675 256 256 256s94.742-42.418 94.742-94.742c0-27.921-12.08-53.019-31.297-70.358L256 136.425 192.554 90.9z" fill="#FFDF49"/><path d="M256 256c52.325 0 94.742-42.418 94.742-94.742 0-27.921-12.08-53.019-31.297-70.358L256 136.425V256z" fill="#FF9B49"/><path d="M196.729 482.364v-13.773c0-16.367 13.268-29.636 29.636-29.636 16.367 0 29.636 13.268 29.636 29.636v13.773C256 498.732 242.732 512 226.364 512c-16.367 0-29.635-13.268-29.635-29.636z" fill="#FFDF49"/><path d="M256 482.364v-13.773c0-16.367 13.268-29.636 29.636-29.636 16.367 0 29.636 13.268 29.636 29.636v13.773c0 16.367-13.268 29.636-29.636 29.636S256 498.732 256 482.364z" fill="#FF9B49"/><path fill="#BA942F" d="M256 167.906L113.382 53.108 132.192 29.739 256 129.395 379.808 29.739 398.618 53.108z"/><path fill="#9B731A" d="M256 167.906L256 129.395 379.808 29.739 398.618 53.108z"/></svg>