<svg enable-background="new 0 0 343.1 512" viewBox="0 0 343.1 512" xmlns="http://www.w3.org/2000/svg"><path d="m275 123.4c-19.5 0-35.4 15.9-35.4 35.4s15.9 35.4 35.4 35.4 35.4-15.9 35.4-35.4-15.9-35.4-35.4-35.4zm0 54.5c-10.5 0-19.1-8.6-19.1-19.1s8.6-19.1 19.1-19.1 19.1 8.6 19.1 19.1-8.6 19.1-19.1 19.1zm-158.6-54.5c-19.5 0-35.4 15.9-35.4 35.4s15.9 35.4 35.4 35.4 35.4-15.9 35.4-35.4-15.8-35.4-35.4-35.4zm0 54.5c-10.5 0-19.1-8.6-19.1-19.1s8.6-19.1 19.1-19.1 19.1 8.6 19.1 19.1-8.6 19.1-19.1 19.1z" stroke="#000" stroke-miterlimit="10" stroke-width=".5"/><path d="m335-.2c-21.5 0-40.5 13.2-48.2 32.7h-182.5c-7.7-19.5-26.7-32.7-48.2-32.7-4.5 0-8.2 3.7-8.2 8.2v224.2c0 4.5 3.7-6 8.2-6s8.2-.4 8.2-4.9v-139.5c54.4 3.1 102.3 36.6 123.8 86.7 1.3 3 4.2 4.9 7.5 4.9s6.2-1.9 7.5-4.9c21.5-50 69.4-83.6 123.8-86.7v143c0 146.5-117 266.2-262.5 270.6v-25.3c70.8-23.6 122-90.4 122-169 0-51.4-41.8-93.1-93.1-93.1s-93.3 41.6-93.3 93v169.9c0 4.5 3.7 8.2 8.2 8.2 13.7 0 27-1.6 39.8-4.5v29c0 4.5 3.7 8.2 8.2 8.2 158.3 0 287-128.8 287-287v-216.8c-.1-4.5-3.7-8.2-8.2-8.2zm-8.2 65.6c-55.1 2.8-104.5 33.7-131.3 81.4-26.7-47.8-76.2-78.6-131.2-81.4v-48.3c12.6 3 22.8 12.7 26.2 25.6.9 3.6 4.2 6.1 7.9 6.1h194.3c3.7 0 7-2.5 7.9-6.1 3.3-12.9 13.6-22.6 26.2-25.6zm-271.3 390.3c-1.7.5-3.5 1-5.2 1.5-11.1 3-22.4 4.8-33.9 5.4v-161.6c0-42.3 34.5-76.8 76.8-76.8s76.8 34.5 76.8 76.8c0 71.9-47.1 132.9-112 153.9-.1 0-.9.3-2.5.8z" stroke="#000" stroke-miterlimit="10" stroke-width=".5"/><path d="m81.9 300.5c0-4.5-3.7-8.2-8.2-8.2s-8.2 3.7-8.2 8.2-3.7 8.2-8.2 8.2-8.2-3.7-8.2-8.2-3.7-8.2-8.2-8.2-8.2 3.7-8.2 8.2c0 13.5 11 24.5 24.5 24.5 13.7 0 24.7-11 24.7-24.5z"/><path d="m90 341.4c-4.5 0-8.2 3.7-8.2 8.2s-3.7 8.2-8.2 8.2-8.2-3.7-8.2-8.2-3.7-8.2-8.2-8.2-8.2 3.7-8.2 8.2c0 13.5 11 24.5 24.5 24.5s24.5-11 24.5-24.5c.2-4.6-3.5-8.2-8-8.2z"/><path d="m146.4 305.8c0-4.5-3.7-8.2-8.2-8.2s-8.2 3.7-8.2 8.2-3.7 8.2-8.2 8.2-8.2-3.7-8.2-8.2-3.7-8.2-8.2-8.2-8.2 3.7-8.2 8.2c0 13.5 11 24.5 24.5 24.5 13.7 0 24.7-11 24.7-24.5z"/></svg>